<svg width="20" height="20" viewBox="0 0 20 20" fill="none" xmlns="http://www.w3.org/2000/svg">
<path d="M19.56 10.2204C19.56 11.0286 17.9752 11.6178 17.7754 12.3635C17.5697 13.1349 18.6416 14.4367 18.2508 15.1119C17.8547 15.7966 16.1877 15.516 15.6315 16.0721C15.0761 16.6283 15.3567 18.2945 14.6713 18.6912C13.9961 19.0821 12.6942 18.0094 11.9235 18.2159C11.1778 18.415 10.5885 20.0004 9.78035 20.0004C8.97145 20.0004 8.38221 18.415 7.63723 18.2159C6.86579 18.0094 5.5639 19.0821 4.88871 18.6912C4.20322 18.2945 4.48388 16.6283 3.92843 16.0721C3.37227 15.516 1.70524 15.7966 1.30921 15.1119C0.918378 14.4367 1.99101 13.1349 1.78457 12.3635C1.58547 11.6178 0 11.0286 0 10.2204C0 9.41228 1.58547 8.82307 1.78457 8.07738C1.99101 7.30597 0.918378 6.00412 1.30921 5.32897C1.70524 4.64426 3.37227 4.92489 3.92843 4.36875C4.48464 3.81258 4.20397 2.14636 4.88871 1.74964C5.5639 1.35877 6.86579 2.43142 7.63723 2.22495C8.38295 2.02585 8.97218 0.44043 9.78035 0.44043C10.5885 0.44043 11.1778 2.02585 11.9235 2.22495C12.6949 2.43142 13.9968 1.35953 14.672 1.74964C15.3567 2.14636 15.0761 3.81333 15.6323 4.36875C16.1877 4.92489 17.8547 4.64426 18.2508 5.32968C18.6416 6.00488 17.5697 7.30597 17.7761 8.07738C17.9752 8.82307 19.56 9.41228 19.56 10.2204Z" fill="#3897F1"/>
<path d="M8.72839 13.8914L5.63525 10.7982L6.96725 9.46625L8.72839 11.2274L13.3151 6.64062L14.6471 7.97263L8.72839 13.8914Z" fill="white"/>
</svg>
