<svg width="23" height="23" viewBox="0 0 23 23" fill="none" xmlns="http://www.w3.org/2000/svg">
<path d="M2 1.5C1.7243 1.5 1.5 1.7243 1.5 2V8C1.5 8.2757 1.7243 8.5 2 8.5H8C8.2757 8.5 8.5 8.2757 8.5 8V2C8.5 1.7243 8.2757 1.5 8 1.5H2ZM2 0H8C9.10457 0 10 0.89543 10 2V8C10 9.10457 9.10457 10 8 10H2C0.89543 10 0 9.10457 0 8V2C0 0.89543 0.89543 0 2 0Z" fill="#192F60"/>
<path d="M15 1.5C14.7243 1.5 14.5 1.7243 14.5 2V8C14.5 8.2757 14.7243 8.5 15 8.5H21C21.2757 8.5 21.5 8.2757 21.5 8V2C21.5 1.7243 21.2757 1.5 21 1.5H15ZM15 0H21C22.1046 0 23 0.89543 23 2V8C23 9.10457 22.1046 10 21 10H15C13.8954 10 13 9.10457 13 8V2C13 0.89543 13.8954 0 15 0Z" fill="#192F60"/>
<path d="M2 14.5C1.7243 14.5 1.5 14.7243 1.5 15V21C1.5 21.2757 1.7243 21.5 2 21.5H8C8.2757 21.5 8.5 21.2757 8.5 21V15C8.5 14.7243 8.2757 14.5 8 14.5H2ZM2 13H8C9.10457 13 10 13.8954 10 15V21C10 22.1046 9.10457 23 8 23H2C0.89543 23 0 22.1046 0 21V15C0 13.8954 0.89543 13 2 13Z" fill="#192F60"/>
<path d="M15 14.5C14.7243 14.5 14.5 14.7243 14.5 15V21C14.5 21.2757 14.7243 21.5 15 21.5H21C21.2757 21.5 21.5 21.2757 21.5 21V15C21.5 14.7243 21.2757 14.5 21 14.5H15ZM15 13H21C22.1046 13 23 13.8954 23 15V21C23 22.1046 22.1046 23 21 23H15C13.8954 23 13 22.1046 13 21V15C13 13.8954 13.8954 13 15 13Z" fill="#192F60"/>
</svg>
