<svg width="23" height="23" viewBox="0 0 23 23" fill="none" xmlns="http://www.w3.org/2000/svg">
<path d="M11.5004 23C9.95569 23 8.45398 22.6948 7.03687 22.0925C5.66882 21.5117 4.43823 20.6804 3.37927 19.6213C2.31995 18.5623 1.48828 17.3313 0.907104 15.9631C0.305176 14.5459 0 13.0444 0 11.4998C0 9.95557 0.305176 8.4541 0.907104 7.03613C1.4884 5.66821 2.32019 4.4375 3.37927 3.37866C4.43628 2.3208 5.66687 1.48901 7.03687 0.906494C8.453 0.304932 9.95471 0 11.5004 0C13.0453 0 14.547 0.304932 15.9637 0.906494C17.3344 1.4895 18.5648 2.32129 19.6215 3.37866C20.6805 4.4375 21.5121 5.66797 22.0934 7.03613C22.6949 8.45312 23 9.95483 23 11.4998C23 13.0452 22.6949 14.5469 22.0934 15.9631C21.5122 17.3313 20.6805 18.5623 19.6215 19.6213C18.5629 20.6799 17.3324 21.5112 15.9637 22.0925C14.5459 22.6948 13.0443 23 11.5004 23ZM11.5004 1.69141C8.87585 1.69141 6.41125 2.71021 4.56079 4.56006C2.71033 6.4104 1.69128 8.875 1.69128 11.4998C1.69128 14.1248 2.71033 16.5894 4.56079 18.4392C6.41101 20.2896 8.87561 21.3086 11.5004 21.3086C14.125 21.3086 16.5895 20.2896 18.4398 18.4392C20.2902 16.5886 21.3093 14.1243 21.3093 11.4998C21.3093 8.87573 20.2902 6.41113 18.4398 4.56006C16.5892 2.71021 14.1248 1.69141 11.5004 1.69141ZM11.5004 16.9119C10.1946 16.9119 9.13245 15.8496 9.13245 14.5439C9.13245 14.4634 9.17249 14.3428 9.2113 14.2261L9.21619 14.2114L9.21729 14.208C9.2428 14.1296 9.27173 14.0405 9.29504 13.947L9.38757 13.5754L6.34668 10.5344L6.3324 10.52C6.11609 10.3159 6.02209 10.0088 6.0874 9.71851C6.15271 9.43237 6.36511 9.19702 6.64209 9.10376L6.65625 9.10449L6.72302 9.09497C6.77014 9.08936 6.80627 9.08667 6.84021 9.08667C7.078 9.08667 7.30652 9.18848 7.46692 9.36597L10.5317 12.4314L10.9034 12.3389C10.9948 12.3159 11.0818 12.2878 11.1588 12.2629L11.1658 12.2605L11.1825 12.2551C11.299 12.2163 11.4193 12.176 11.5004 12.176C12.8059 12.176 13.868 13.2383 13.868 14.5439C13.868 15.8496 12.8059 16.9119 11.5004 16.9119ZM16.0665 10.823C15.5842 10.823 15.2206 10.4597 15.2206 9.97778C15.2206 9.49585 15.5842 9.13257 16.0665 9.13257C16.5485 9.13257 16.912 9.49585 16.912 9.97778C16.912 10.4597 16.5485 10.823 16.0665 10.823ZM11.5004 7.7793C11.0184 7.7793 10.6549 7.41577 10.6549 6.93335C10.6549 6.45142 11.0184 6.08813 11.5004 6.08813C11.9823 6.08813 12.3456 6.45142 12.3456 6.93335C12.3456 7.41577 11.9823 7.7793 11.5004 7.7793Z" fill="#192F60"/>
</svg>
