<svg width="24" height="21" viewBox="0 0 24 21" fill="none" xmlns="http://www.w3.org/2000/svg">
<path d="M16.9239 20.1721C16.5097 20.1721 16.1739 19.8364 16.1739 19.4221V17.4004C16.1739 15.5844 14.6964 14.1069 12.8804 14.1069H4.79347C3.91375 14.1069 3.08669 14.4495 2.46463 15.0716C1.84258 15.6936 1.5 16.5207 1.5 17.4004V19.4221C1.5 19.8364 1.16421 20.1721 0.75 20.1721C0.33578 20.1721 0 19.8364 0 19.4221V17.4004C0 16.12 0.49861 14.9163 1.40397 14.0109C2.30934 13.1055 3.51309 12.6069 4.79347 12.6069H12.8804C15.5235 12.6069 17.6739 14.7573 17.6739 17.4004V19.4221C17.6739 19.8364 17.3381 20.1721 16.9239 20.1721Z" fill="#201FF0"/>
<path d="M8.83693 0.476562C11.4801 0.476562 13.6304 2.6269 13.6304 5.27003C13.6304 7.91316 11.4801 10.0635 8.83693 10.0635C6.1938 10.0635 4.04346 7.91316 4.04346 5.27003C4.04346 2.6269 6.1938 0.476562 8.83693 0.476562ZM8.83693 8.5635C10.653 8.5635 12.1304 7.08606 12.1304 5.27003C12.1304 3.454 10.653 1.97656 8.83693 1.97656C7.0209 1.97656 5.54346 3.454 5.54346 5.27003C5.54346 7.08606 7.0209 8.5635 8.83693 8.5635Z" fill="#201FF0"/>
<path d="M22.9893 20.1723C22.5751 20.1723 22.2393 19.8365 22.2393 19.4223V17.4005C22.2382 15.9002 21.2225 14.5899 19.7692 14.2146C19.3682 14.1111 19.127 13.702 19.2305 13.301C19.3341 12.8999 19.7432 12.6587 20.1442 12.7623C22.2593 13.3084 23.7377 15.2155 23.7393 17.4V19.4223C23.7393 19.8365 23.4036 20.1723 22.9893 20.1723Z" fill="#201FF0"/>
<path d="M15.9122 9.9425C15.5778 9.9425 15.273 9.71723 15.1862 9.37834C15.0835 8.97707 15.3255 8.56849 15.7268 8.46575C17.1849 8.0924 18.2033 6.7804 18.2033 5.2752C18.2033 3.77 17.1849 2.458 15.7267 2.08465C15.3255 1.98191 15.0835 1.57333 15.1862 1.17206C15.289 0.770792 15.6975 0.528781 16.0988 0.631532C18.2211 1.17491 19.7033 3.08446 19.7033 5.2752C19.7033 7.46594 18.2211 9.37549 16.0988 9.91888C16.0364 9.93485 15.9738 9.9425 15.9122 9.9425Z" fill="#201FF0"/>
</svg>
