<svg width="147" height="29" viewBox="0 0 147 29" fill="none" xmlns="http://www.w3.org/2000/svg">
<path d="M47.0698 1.03809H62.2253L61.1889 4.98876H51.409V9.91108H59.9258L58.9222 13.8297H51.409V19.3672H61.5774L62.6462 23.3179H47.0698V1.03809Z" fill="#192F60"/>
<rect x="64.6528" y="0.0664062" width="4.1773" height="23.2514" fill="#192F60"/>
<path d="M81.0386 23.7392C74.6266 23.7392 71.4209 20.1123 71.4209 15.1252C71.4209 10.5591 74.4003 6.6084 79.6787 6.6084C84.2769 6.6084 86.9649 10.3652 86.9649 14.7367C86.9649 15.3195 86.9325 16.1293 86.8354 16.6473H75.7601C76.2781 18.9464 78.1243 20.2095 81.4922 20.2095C83.3053 20.2095 85.1511 19.659 86.2199 18.8817V22.5409C85.054 23.3183 82.7872 23.7392 81.0386 23.7392ZM79.5168 10.1058C77.4117 10.1058 76.0515 11.4983 75.6953 13.7327H82.8844C82.6254 11.5307 81.3947 10.1058 79.5168 10.1058Z" fill="#192F60"/>
<path d="M87.8057 7.02881H92.4686L96.1927 19.1726L99.8847 7.02881H104.354L98.6867 23.3175H93.473L87.8057 7.02881Z" fill="#192F60"/>
<path d="M118.181 23.3182H114.262L114.23 20.5979C113.485 22.4761 112.06 23.5772 109.923 23.5772C106.717 23.5772 104.709 21.3425 104.709 18.7197C104.709 14.2506 108.66 13.6678 111.93 13.3764L114.068 13.1822V12.8257C114.068 11.1745 112.481 10.2999 110.214 10.2999C108.498 10.2999 106.846 10.7532 105.259 11.6277L106.263 7.80658C107.85 6.99681 109.567 6.73779 111.153 6.73779C114.942 6.73779 118.181 8.51887 118.181 12.7285V23.3182ZM111.283 20.2741C112.773 20.2741 114.068 19.0434 114.068 17.0357V15.9022L111.769 16.1292C109.826 16.3234 108.886 16.9062 108.886 18.234C108.886 19.3672 109.631 20.2741 111.283 20.2741Z" fill="#192F60"/>
<path d="M124.268 7.02881L127.927 18.298L131.425 7.02881H135.732L130.097 23.0908C128.834 26.653 127.15 28.7578 123.556 28.7578C122.487 28.7578 121.321 28.4664 120.771 27.9808V24.5482C121.386 24.8719 122.26 25.0338 122.908 25.0338C124.527 25.0338 125.337 24.3539 125.628 23.188L119.669 7.02881H124.268Z" fill="#192F60"/>
<path d="M146.87 7.0288V10.3967H142.434V17.3267C142.434 19.1078 143.308 19.8201 145.121 19.8201C145.672 19.8201 146.417 19.6582 147 19.3668V22.7347C146.352 23.2527 145.024 23.5117 143.891 23.5117C140.134 23.5117 138.256 21.504 138.256 18.2333V10.3967H136.054V9.48978L141.17 3.49902H142.434V7.0288H146.87Z" fill="#192F60"/>
<path fill-rule="evenodd" clip-rule="evenodd" d="M24.4218 17.0189C24.4005 17.0588 24.3791 17.0986 24.3578 17.1381C24.3315 17.1854 24.3055 17.2324 24.2792 17.279C24.2518 17.3256 24.2251 17.3722 24.1973 17.4188C24.1699 17.4651 24.1418 17.5117 24.1137 17.5576C24.0853 17.6038 24.0572 17.6497 24.0276 17.6956C23.9988 17.7412 23.9693 17.7867 23.9394 17.8319C23.9099 17.8774 23.8796 17.9223 23.8497 17.9674C23.8195 18.0123 23.7882 18.0575 23.7572 18.1019C23.7263 18.1464 23.6946 18.1909 23.6626 18.235C23.6306 18.2791 23.5982 18.3232 23.5658 18.367C23.5338 18.4108 23.5007 18.4545 23.4673 18.4979C23.4345 18.5413 23.4004 18.5844 23.3669 18.6271C23.3328 18.6701 23.2983 18.7132 23.2637 18.7555C23.2292 18.7982 23.1944 18.8402 23.1588 18.8825C23.1236 18.9245 23.088 18.9665 23.0517 19.0085C23.0154 19.0501 22.9795 19.0914 22.9432 19.1326C22.9062 19.1736 22.8692 19.2145 22.8318 19.255C22.7948 19.2956 22.7575 19.3362 22.7194 19.3767C22.6813 19.4169 22.6429 19.4568 22.6045 19.4966C22.5653 19.5361 22.5262 19.5756 22.4874 19.6151C22.4479 19.6546 22.4088 19.6937 22.3689 19.7325C22.3291 19.7713 22.2885 19.8097 22.2483 19.8481C22.2081 19.8862 22.1672 19.9239 22.1259 19.9616C22.085 19.9993 22.0434 20.0367 22.0018 20.0741C21.9598 20.1114 21.9182 20.1484 21.8758 20.1854C21.8338 20.2221 21.7911 20.2584 21.7477 20.2946C21.7054 20.3306 21.6623 20.3665 21.6189 20.4021C21.5755 20.4377 21.5314 20.4729 21.4873 20.5078C21.4435 20.543 21.3991 20.5779 21.3546 20.6124C21.3101 20.6469 21.2656 20.6814 21.2205 20.7152C21.1753 20.7493 21.1297 20.7828 21.0838 20.8162C21.0383 20.8497 20.9928 20.8828 20.9465 20.9155C20.8999 20.9482 20.854 20.9806 20.8074 21.0126C20.7604 21.045 20.7135 21.0767 20.6665 21.1083C20.6192 21.14 20.5711 21.1713 20.5235 21.2023C20.4762 21.2336 20.4278 21.2645 20.3801 21.2951C20.3317 21.3254 20.2833 21.3556 20.2346 21.3851C20.1858 21.415 20.1367 21.4446 20.088 21.4737C20.0389 21.5029 19.9894 21.5317 19.9396 21.5602C19.8895 21.5886 19.84 21.6168 19.7898 21.6449C19.7397 21.6726 19.6891 21.7004 19.6393 21.7278C19.5881 21.7552 19.5376 21.7822 19.4867 21.8092C19.4358 21.8356 19.3846 21.8619 19.3334 21.8875C19.2818 21.9135 19.2305 21.9395 19.1782 21.9647C19.127 21.99 19.0743 22.0152 19.022 22.0401C18.9701 22.0647 18.9182 22.0889 18.8659 22.1127C18.8132 22.1369 18.7602 22.1608 18.7075 22.1839C18.6545 22.2074 18.6015 22.2305 18.5478 22.2533C18.4948 22.276 18.4414 22.2984 18.3877 22.3205C18.334 22.3426 18.2802 22.3639 18.2262 22.3853C18.1717 22.4066 18.1176 22.4276 18.0628 22.4482C18.0084 22.4692 17.954 22.4895 17.8992 22.5098C17.8444 22.5297 17.7892 22.5493 17.7348 22.5688C17.68 22.5881 17.6249 22.6069 17.5694 22.6258C17.5142 22.6443 17.4587 22.6624 17.4032 22.6802C17.347 22.698 17.2919 22.7158 17.2356 22.7332C17.1801 22.7503 17.1239 22.767 17.0677 22.7834C17.0115 22.8001 16.9553 22.8161 16.8983 22.8321C16.8421 22.8478 16.7859 22.8634 16.7293 22.8784C16.6724 22.8937 16.6155 22.9083 16.5589 22.9225C16.502 22.9367 16.4451 22.951 16.3878 22.9645C16.3305 22.9784 16.2736 22.9915 16.2163 23.0047C16.1583 23.0175 16.101 23.0299 16.0434 23.0424C15.9861 23.0545 15.9285 23.0662 15.8705 23.0776C15.8125 23.089 15.7552 23.1 15.6972 23.1111C15.6392 23.1217 15.5816 23.1324 15.5236 23.1424C15.4652 23.1523 15.4072 23.1616 15.3482 23.1708C15.2905 23.1801 15.2318 23.1893 15.1738 23.1979C15.1155 23.2064 15.0571 23.2146 14.9988 23.2221C14.9405 23.2299 14.8817 23.2374 14.8234 23.2445C14.7647 23.2516 14.7056 23.2584 14.6466 23.2648C14.5882 23.2712 14.5295 23.2769 14.4708 23.2826C14.4117 23.2879 14.3523 23.2932 14.2936 23.2979C14.2349 23.3028 14.1762 23.3075 14.1175 23.3117C14.0585 23.3156 13.999 23.3196 13.9403 23.3228C13.8813 23.3263 13.8219 23.3292 13.7628 23.332C13.7037 23.3349 13.6447 23.337 13.5856 23.3391C13.5265 23.3409 13.4671 23.342 13.4081 23.343C13.349 23.3441 13.29 23.3448 13.2305 23.3452H22.059C26.0001 23.3452 29.1954 20.5127 29.1954 17.0186L24.4218 17.0189ZM24.4218 17.0189H1.85742C1.86632 17.0356 1.87486 17.0523 1.88375 17.0691C1.90972 17.1164 1.9357 17.1634 1.96202 17.2107C1.98835 17.2573 2.01504 17.3043 2.04208 17.3509C2.06912 17.3971 2.09651 17.4437 2.12426 17.4896C2.15237 17.5362 2.18083 17.5821 2.2093 17.628C2.23811 17.6739 2.26729 17.7198 2.29646 17.7654C2.32599 17.8109 2.35552 17.8561 2.38577 17.9013C2.41565 17.9464 2.44625 17.9916 2.47685 18.0365C2.50745 18.0813 2.53876 18.1258 2.57006 18.1699C2.60173 18.2144 2.6334 18.2588 2.66577 18.3029C2.69779 18.3471 2.73053 18.3908 2.76326 18.4346C2.79635 18.478 2.82943 18.521 2.86288 18.5641C2.89668 18.6075 2.93048 18.6506 2.96499 18.6932C2.9995 18.7359 3.03437 18.7783 3.06959 18.8206C3.10446 18.863 3.13968 18.9053 3.17526 18.9473C3.21119 18.9889 3.24713 19.0305 3.28342 19.0722C3.31971 19.1134 3.356 19.1547 3.393 19.1956C3.43 19.2365 3.46736 19.2771 3.50507 19.3173C3.54279 19.3579 3.58086 19.3984 3.61928 19.4383C3.65771 19.4785 3.69613 19.5183 3.73491 19.5578C3.77405 19.5969 3.81319 19.6361 3.85268 19.6752C3.89217 19.7144 3.93202 19.7531 3.97187 19.7919C4.01243 19.8303 4.05299 19.8684 4.0939 19.9061C4.13446 19.9442 4.17538 19.9823 4.21665 20.02C4.25792 20.057 4.29991 20.0943 4.34189 20.131C4.38387 20.168 4.42621 20.205 4.4689 20.2416C4.51124 20.2779 4.55394 20.3139 4.59699 20.3498C4.64039 20.3857 4.68416 20.4213 4.72792 20.4565C4.77168 20.4918 4.81544 20.527 4.85956 20.5615C4.90403 20.5964 4.94851 20.6312 4.99334 20.6654C5.03816 20.6995 5.08335 20.7337 5.12853 20.7675C5.17408 20.8009 5.21997 20.8344 5.26587 20.8675C5.31177 20.9006 5.35766 20.9333 5.40391 20.9657C5.45017 20.9984 5.49713 21.0304 5.54409 21.0621C5.59106 21.0941 5.63838 21.1261 5.68605 21.1574C5.73337 21.1887 5.78105 21.2193 5.82908 21.2499C5.87711 21.2809 5.9255 21.3115 5.97389 21.3417C6.02227 21.3716 6.07066 21.4015 6.1194 21.4314C6.1685 21.4606 6.21796 21.4897 6.26741 21.5182C6.31687 21.5474 6.36668 21.5758 6.41649 21.6043C6.4663 21.6328 6.51611 21.6605 6.56627 21.6883C6.61679 21.7157 6.66732 21.7431 6.71819 21.7697C6.76872 21.7968 6.81959 21.8235 6.87083 21.8494C6.92206 21.8761 6.97329 21.9021 7.02488 21.9281C7.07647 21.9537 7.12806 21.9789 7.18036 22.0039C7.23231 22.0288 7.28461 22.0537 7.33691 22.0779C7.38921 22.1024 7.44187 22.1266 7.49452 22.1504C7.54718 22.1739 7.60019 22.1974 7.65321 22.2202C7.70657 22.2433 7.75994 22.2657 7.81367 22.2881C7.86703 22.3105 7.92076 22.3326 7.97448 22.3543C8.02856 22.376 8.08264 22.3974 8.13707 22.4183C8.19116 22.4393 8.24559 22.46 8.30003 22.4803C8.35446 22.5009 8.40925 22.5208 8.46369 22.5407C8.51884 22.5603 8.57363 22.5795 8.62913 22.5984C8.68428 22.6172 8.73943 22.6361 8.79493 22.6546C8.85043 22.6724 8.90629 22.6902 8.96215 22.7076C9.01765 22.7254 9.07351 22.7425 9.12937 22.7595C9.18558 22.7763 9.24144 22.7926 9.29801 22.809C9.35423 22.825 9.4108 22.841 9.46737 22.8563C9.52394 22.872 9.58051 22.8869 9.63743 22.9015C9.694 22.9164 9.75093 22.9307 9.80821 22.9449C9.86514 22.9588 9.92242 22.9723 9.97935 22.9858C10.0366 22.9986 10.0943 23.0114 10.1515 23.0239C10.2092 23.0367 10.2668 23.0492 10.3245 23.0613C10.3821 23.0726 10.4397 23.084 10.4974 23.0951C10.5554 23.1061 10.6134 23.1168 10.6714 23.1274C10.7293 23.1377 10.7877 23.1477 10.8457 23.1577C10.9037 23.1673 10.9617 23.1765 11.02 23.1854C11.0784 23.194 11.1371 23.2025 11.1954 23.2107C11.2538 23.2189 11.3121 23.2267 11.3705 23.2342C11.4292 23.2416 11.4879 23.2487 11.5466 23.2559C11.6053 23.2623 11.6644 23.2683 11.7231 23.2744C11.7818 23.2801 11.8405 23.2858 11.8992 23.2907C11.9582 23.2961 12.0173 23.3011 12.0764 23.3057C12.1354 23.3103 12.1945 23.3142 12.2532 23.3181C12.3122 23.3217 12.3713 23.3252 12.4304 23.3284C12.4894 23.3313 12.5485 23.3341 12.6072 23.3363C12.6666 23.3388 12.7257 23.3409 12.7851 23.3423C12.8441 23.3438 12.9032 23.3448 12.9619 23.3455C13.0213 23.3462 13.08 23.3466 13.1398 23.3462H13.2305C13.29 23.3462 13.349 23.3455 13.4081 23.3445C13.4671 23.3434 13.5265 23.342 13.5856 23.3402C13.6447 23.3384 13.7037 23.3359 13.7628 23.3334C13.8219 23.3306 13.8813 23.3277 13.9403 23.3242C13.999 23.3206 14.0585 23.3171 14.1175 23.3128C14.1762 23.3089 14.2349 23.3043 14.2936 23.2993C14.3523 23.2947 14.4117 23.2893 14.4708 23.284C14.5295 23.2783 14.5882 23.2722 14.6466 23.2658C14.7056 23.2594 14.7647 23.2527 14.8234 23.2456C14.8821 23.2384 14.9405 23.231 14.9992 23.2231C15.0575 23.2157 15.1155 23.2075 15.1738 23.1993C15.2318 23.1904 15.2905 23.1815 15.3489 23.1719C15.4072 23.163 15.4656 23.1534 15.5236 23.1434C15.5816 23.1335 15.6396 23.1228 15.6972 23.1121C15.7552 23.1015 15.8125 23.0904 15.8708 23.0787C15.9285 23.0673 15.9861 23.0556 16.0434 23.0435C16.1014 23.0314 16.1587 23.0186 16.2163 23.0058C16.2736 22.9926 16.3309 22.9794 16.3878 22.9655C16.4451 22.952 16.502 22.9378 16.5589 22.9236C16.6162 22.9093 16.6724 22.8947 16.7293 22.8798C16.7859 22.8645 16.8421 22.8492 16.8987 22.8332C16.9553 22.8175 17.0115 22.8012 17.0677 22.7844C17.1239 22.7681 17.1801 22.7514 17.2356 22.7343C17.2919 22.7169 17.3477 22.6994 17.4032 22.6813C17.4587 22.6635 17.5142 22.6453 17.5694 22.6268C17.6249 22.6083 17.68 22.5891 17.7348 22.5699C17.79 22.5507 17.8447 22.5308 17.8992 22.5108C17.954 22.4906 18.0088 22.4703 18.0632 22.4497C18.1176 22.429 18.1721 22.408 18.2262 22.3867C18.2802 22.3653 18.334 22.3436 18.3877 22.3216C18.4414 22.2995 18.4948 22.2771 18.5478 22.2543C18.6015 22.2316 18.6545 22.2084 18.7075 22.1849C18.7602 22.1618 18.8132 22.138 18.8659 22.1141C18.9182 22.09 18.9701 22.0658 19.0224 22.0412C19.0743 22.0163 19.127 21.9914 19.1782 21.9658C19.2305 21.9405 19.2818 21.9145 19.3334 21.8886C19.3846 21.863 19.4358 21.8366 19.4867 21.8103C19.5379 21.7833 19.5888 21.7555 19.6393 21.7278C19.6895 21.7007 19.74 21.6737 19.7898 21.6459C19.84 21.6178 19.8898 21.589 19.9396 21.5602C19.9894 21.5317 20.0389 21.5029 20.088 21.4737C20.1364 21.4445 20.1858 21.4161 20.2346 21.3862C20.2833 21.3563 20.3317 21.3257 20.3801 21.2951C20.4278 21.2645 20.4762 21.2346 20.5238 21.2033C20.5711 21.1724 20.6192 21.1411 20.6665 21.1094C20.7138 21.0777 20.7608 21.0457 20.8074 21.0137C20.854 20.9817 20.9002 20.9493 20.9469 20.9166C20.9928 20.8838 21.0383 20.8507 21.0838 20.8173C21.1297 20.7839 21.1753 20.7504 21.2205 20.7163C21.2656 20.6825 21.3101 20.6479 21.3546 20.6134C21.3991 20.5789 21.4435 20.5441 21.4873 20.5088C21.5318 20.474 21.5755 20.4387 21.6189 20.4032C21.6623 20.3676 21.7054 20.332 21.7477 20.2957C21.7911 20.2594 21.8338 20.2231 21.8758 20.1865C21.9182 20.1495 21.9598 20.1125 22.0018 20.0751C22.0438 20.0381 22.0854 20.0004 22.1267 19.9627C22.1672 19.9253 22.2081 19.8873 22.2483 19.8492C22.2885 19.8108 22.3291 19.7724 22.3689 19.7336C22.4088 19.6948 22.4483 19.6557 22.4874 19.6162C22.5262 19.577 22.5653 19.5372 22.6045 19.4977C22.6433 19.4578 22.6813 19.418 22.7194 19.3778C22.7575 19.3372 22.7948 19.2967 22.8318 19.2561C22.8692 19.2155 22.9062 19.1746 22.9432 19.1337C22.9798 19.0924 23.0154 19.0512 23.0517 19.0095C23.088 18.9676 23.1236 18.9256 23.1588 18.8836C23.1944 18.8416 23.2292 18.7993 23.2637 18.7569C23.2986 18.7142 23.3328 18.6712 23.3669 18.6281C23.4004 18.5854 23.4345 18.5424 23.4676 18.4993C23.5007 18.4556 23.5338 18.4122 23.5658 18.3681C23.5985 18.3243 23.6306 18.2802 23.6626 18.2361C23.6946 18.1919 23.7263 18.1475 23.7576 18.103C23.7885 18.0585 23.8195 18.0137 23.8497 17.9685C23.8796 17.9237 23.9099 17.8785 23.9394 17.8333C23.9693 17.7878 23.9988 17.7422 24.028 17.6967C24.0572 17.6508 24.0853 17.6049 24.1137 17.5586C24.1418 17.5127 24.1699 17.4661 24.1973 17.4199C24.2251 17.3733 24.2521 17.327 24.2792 17.2801C24.3055 17.2335 24.3318 17.1865 24.3578 17.1392C24.3791 17.0997 24.4005 17.0598 24.4218 17.0203V17.0189Z" fill="#2FA77E"/>
<path fill-rule="evenodd" clip-rule="evenodd" d="M25.1066 9.11035C25.1212 9.15411 25.1357 9.19788 25.1496 9.24199C25.166 9.29251 25.1816 9.34304 25.1969 9.39392C25.2126 9.44444 25.2275 9.49532 25.2425 9.54584C25.2567 9.59707 25.2709 9.64795 25.2848 9.69918C25.2983 9.75006 25.3115 9.80129 25.3243 9.85253C25.3375 9.9034 25.3499 9.95499 25.362 10.0062C25.3741 10.0575 25.3862 10.1087 25.3976 10.1599C25.4086 10.2115 25.4193 10.2635 25.4296 10.3151C25.4403 10.3666 25.4506 10.4186 25.4602 10.4702C25.4698 10.5218 25.4791 10.5734 25.4876 10.6253C25.4965 10.6772 25.5047 10.7288 25.5125 10.7808C25.5207 10.8331 25.5285 10.885 25.5357 10.9373C25.5428 10.9893 25.5495 11.0416 25.5559 11.0935C25.562 11.1458 25.568 11.1981 25.5734 11.2504C25.5787 11.3024 25.584 11.3547 25.5887 11.407C25.5929 11.4589 25.5965 11.5112 25.6001 11.5639C25.604 11.6162 25.6072 11.6688 25.6104 11.7211C25.6132 11.7734 25.6157 11.8257 25.6178 11.8784C25.62 11.9307 25.6218 11.9833 25.6232 12.0356C25.6242 12.0879 25.6253 12.1402 25.6257 12.1925V12.2737C25.6257 12.326 25.6253 12.3786 25.6242 12.4313C25.6235 12.4836 25.6221 12.5359 25.6203 12.5882C25.6189 12.6405 25.6168 12.6931 25.6143 12.7454C25.6114 12.7977 25.6086 12.8504 25.605 12.9027C25.6022 12.955 25.5986 13.0073 25.5951 13.0596C25.5908 13.1119 25.5862 13.1642 25.5808 13.2165C25.5759 13.2688 25.5702 13.3211 25.5641 13.3734C25.5584 13.4253 25.552 13.4776 25.5456 13.5296C25.5389 13.5819 25.5321 13.6338 25.5246 13.6858C25.5168 13.7381 25.5086 13.79 25.5001 13.8423C25.4915 13.8939 25.483 13.9455 25.4737 13.9975C25.4645 14.0494 25.4549 14.1013 25.4449 14.1529C25.435 14.2045 25.4243 14.2561 25.4136 14.3073C25.4026 14.3589 25.3912 14.4105 25.3795 14.4621C25.3677 14.5133 25.3556 14.5649 25.3432 14.6165C25.3307 14.6674 25.3179 14.7186 25.3047 14.7695C25.2912 14.8207 25.2773 14.872 25.2631 14.9229C25.2489 14.9737 25.2347 15.0246 25.2197 15.0755C25.2048 15.126 25.1895 15.1769 25.1738 15.2274C25.1578 15.2779 25.1418 15.3285 25.1251 15.3786C25.1187 15.3982 25.1119 15.4174 25.1055 15.4366H29.1939C33.1349 15.4366 36.3299 12.6042 36.3299 9.11035H25.1066ZM25.1066 9.11035H1.17202C1.16561 9.12957 1.15885 9.14913 1.15245 9.16835C1.13608 9.21887 1.12007 9.26903 1.10442 9.31956C1.08841 9.37043 1.07275 9.42096 1.05781 9.47183C1.04287 9.52235 1.02863 9.57323 1.0144 9.62447C1.00017 9.67534 0.986296 9.72622 0.972776 9.77745C0.959612 9.82833 0.946804 9.87956 0.934351 9.9308C0.921898 9.98203 0.909802 10.0336 0.898061 10.0852C0.88632 10.1364 0.874934 10.188 0.863905 10.2396C0.853231 10.2912 0.842558 10.3424 0.832596 10.394C0.822634 10.446 0.813027 10.4979 0.803777 10.5499C0.794526 10.6015 0.785987 10.653 0.777449 10.705C0.76891 10.7569 0.760727 10.8089 0.752899 10.8612C0.745783 10.9131 0.738668 10.9654 0.732264 11.0174C0.725504 11.0697 0.719099 11.1216 0.713407 11.1739C0.707358 11.2262 0.701666 11.2785 0.696685 11.3308C0.691704 11.3831 0.686723 11.4354 0.682453 11.4877C0.678895 11.54 0.675337 11.5923 0.672491 11.6446C0.668933 11.6969 0.666087 11.7492 0.663241 11.8015C0.66075 11.8538 0.658615 11.9065 0.657192 11.9591C0.655413 12.0114 0.65399 12.0637 0.653279 12.116C0.652211 12.1683 0.651855 12.221 0.651855 12.2737V12.3544C0.652211 12.4067 0.653279 12.459 0.654346 12.5113C0.655769 12.564 0.657548 12.6163 0.659683 12.6689C0.661818 12.7212 0.664308 12.7735 0.667154 12.8258C0.670356 12.8785 0.673559 12.9308 0.677472 12.9835C0.68103 13.0358 0.684588 13.0881 0.688857 13.1404C0.693483 13.1923 0.698819 13.2446 0.704156 13.2966C0.709493 13.3489 0.715541 13.4012 0.72159 13.4535C0.727994 13.5058 0.734754 13.5577 0.74187 13.61C0.748986 13.6619 0.756813 13.7142 0.764996 13.7662C0.772823 13.8181 0.781362 13.8701 0.789901 13.922C0.798796 13.9736 0.807691 14.0252 0.817297 14.0768C0.826903 14.1287 0.837221 14.1803 0.847895 14.2319C0.858212 14.2839 0.869242 14.3355 0.880627 14.387C0.891656 14.4386 0.903397 14.4899 0.915494 14.5411C0.927591 14.5923 0.940044 14.6436 0.952852 14.6948C0.966016 14.746 0.97918 14.7969 0.9927 14.8481C1.00658 14.899 1.02081 14.9503 1.03504 15.0011C1.04998 15.052 1.06493 15.1025 1.08058 15.1531C1.09588 15.2039 1.11153 15.2544 1.1279 15.3053C1.14178 15.3491 1.15636 15.3929 1.17095 15.437L25.1055 15.4366C25.1119 15.4174 25.1187 15.3982 25.1251 15.3786C25.1418 15.3285 25.1578 15.2779 25.1738 15.2274C25.1895 15.1769 25.2048 15.126 25.2197 15.0755C25.2347 15.0246 25.2489 14.9737 25.2631 14.9229C25.2773 14.872 25.2912 14.8207 25.3047 14.7695C25.3179 14.7186 25.3307 14.6674 25.3432 14.6165C25.3556 14.5649 25.3677 14.5133 25.3795 14.4621C25.3912 14.4105 25.4026 14.3589 25.4136 14.3073C25.4243 14.2561 25.435 14.2045 25.4449 14.1529C25.4549 14.1013 25.4645 14.0494 25.4737 13.9975C25.483 13.9455 25.4915 13.8939 25.5001 13.8423C25.5086 13.79 25.5168 13.7381 25.5246 13.6858C25.5321 13.6338 25.5389 13.5819 25.5456 13.5296C25.552 13.4776 25.5584 13.4253 25.5641 13.3734C25.5702 13.3211 25.5759 13.2688 25.5808 13.2165C25.5862 13.1642 25.5908 13.1119 25.5951 13.0596C25.5986 13.0073 25.6022 12.955 25.605 12.9027C25.6086 12.8504 25.6114 12.7977 25.6143 12.7454C25.6168 12.6931 25.6189 12.6405 25.6203 12.5882C25.6221 12.5359 25.6235 12.4836 25.6242 12.4313C25.6253 12.3786 25.6257 12.326 25.6257 12.2737C25.626 12.2466 25.626 12.2196 25.6257 12.1925C25.6253 12.1402 25.6242 12.0879 25.6232 12.0356C25.6218 11.9833 25.62 11.9307 25.6178 11.8784C25.6157 11.8257 25.6132 11.7734 25.6104 11.7211C25.6072 11.6688 25.604 11.6162 25.6001 11.5639C25.5965 11.5112 25.5929 11.4589 25.5887 11.407C25.584 11.3547 25.5787 11.3024 25.5734 11.2504C25.568 11.1981 25.562 11.1458 25.5559 11.0935C25.5495 11.0416 25.5428 10.9893 25.5357 10.9373C25.5285 10.885 25.5207 10.8331 25.5125 10.7808C25.5047 10.7288 25.4965 10.6772 25.4876 10.6253C25.4791 10.5734 25.4698 10.5218 25.4602 10.4702C25.4506 10.4186 25.4403 10.3666 25.4296 10.3151C25.4193 10.2635 25.4086 10.2115 25.3976 10.1599C25.3862 10.1087 25.3741 10.0575 25.362 10.0062C25.3499 9.95499 25.3375 9.9034 25.3243 9.85253C25.3115 9.80129 25.2983 9.75006 25.2848 9.69918C25.2709 9.64795 25.2567 9.59707 25.2425 9.54584C25.2275 9.49532 25.2126 9.44444 25.1969 9.39392C25.1816 9.34304 25.166 9.29251 25.1496 9.24199C25.1357 9.19788 25.1212 9.15411 25.1066 9.11035Z" fill="#0055D4"/>
<path fill-rule="evenodd" clip-rule="evenodd" d="M13.0479 1.20237C12.9892 1.20273 12.9301 1.20344 12.8711 1.20451C12.812 1.20522 12.7526 1.20664 12.6935 1.20842C12.6345 1.21056 12.5754 1.21269 12.5163 1.21554C12.4573 1.21803 12.3979 1.22123 12.3388 1.22443C12.2797 1.22799 12.2207 1.23155 12.1616 1.23582C12.1029 1.24009 12.0442 1.24471 11.9855 1.24934C11.9264 1.25432 11.8674 1.2593 11.8083 1.26499C11.7496 1.27068 11.6909 1.27638 11.6322 1.28278C11.5731 1.28918 11.5144 1.29594 11.4557 1.30306C11.397 1.31018 11.3387 1.31765 11.28 1.32547C11.2216 1.33295 11.1633 1.34113 11.1053 1.34967C11.0469 1.35821 10.9886 1.36746 10.9302 1.37671C10.8719 1.38596 10.8135 1.39592 10.7555 1.40588C10.6975 1.41584 10.6396 1.42616 10.5819 1.43684C10.5239 1.44751 10.4659 1.45854 10.4083 1.46992C10.3507 1.48131 10.293 1.49305 10.2354 1.50515C10.1777 1.51724 10.1201 1.53005 10.0628 1.54286C10.0055 1.55603 9.94826 1.56919 9.89133 1.58306C9.83405 1.59658 9.77677 1.61082 9.71984 1.62505C9.66292 1.63928 9.60635 1.65387 9.54978 1.66881C9.49321 1.68411 9.43664 1.69941 9.38042 1.71506C9.32385 1.73107 9.26728 1.74744 9.21107 1.76416C9.15485 1.78053 9.099 1.79725 9.04314 1.81433C8.98728 1.8314 8.93142 1.84919 8.87592 1.86734C8.82041 1.88513 8.76491 1.90327 8.70941 1.92177C8.65426 1.94028 8.59911 1.95949 8.54432 1.9787C8.48917 1.99791 8.43438 2.01784 8.37995 2.03812C8.32516 2.05804 8.27036 2.07832 8.21593 2.09931C8.16149 2.11995 8.10706 2.14094 8.05298 2.16229C7.99925 2.18363 7.94553 2.20498 7.89181 2.22704C7.83808 2.2491 7.78436 2.27151 7.73099 2.29428C7.67762 2.31705 7.62425 2.34018 7.5716 2.36366C7.51859 2.38679 7.46593 2.41063 7.41327 2.43446C7.36062 2.45866 7.30867 2.48285 7.25637 2.5074C7.20407 2.53231 7.15212 2.55721 7.10018 2.58283C7.04859 2.60809 6.997 2.63406 6.94577 2.66003C6.89418 2.68601 6.8433 2.71233 6.79242 2.73902C6.74119 2.7657 6.69031 2.79274 6.63979 2.82014C6.58927 2.84718 6.5391 2.87493 6.48929 2.90304C6.43913 2.93079 6.38896 2.9589 6.3395 2.98736C6.28969 3.01582 6.24024 3.04464 6.19078 3.07382C6.14204 3.10299 6.0933 3.13252 6.04456 3.16241C5.99581 3.19194 5.94743 3.22218 5.89904 3.25242C5.85101 3.28302 5.80298 3.31397 5.7553 3.34528C5.70762 3.37624 5.65995 3.40754 5.61263 3.43921C5.56531 3.47088 5.51835 3.5029 5.47174 3.53492C5.42513 3.56694 5.37852 3.59931 5.33227 3.63205C5.28637 3.66478 5.24048 3.69822 5.19529 3.73167C5.14939 3.76511 5.10385 3.79891 5.05867 3.83307C5.01348 3.86687 4.96865 3.90102 4.92418 3.93553C4.87971 3.97004 4.83559 4.00491 4.79183 4.03978C4.74735 4.07465 4.70359 4.10987 4.65983 4.14545C4.61678 4.18103 4.57373 4.21732 4.53103 4.25361C4.48798 4.28954 4.44529 4.32583 4.40259 4.36248C4.36061 4.39913 4.31898 4.43613 4.27736 4.47349C4.23537 4.51084 4.19375 4.5482 4.15248 4.58591C4.11156 4.62363 4.071 4.66134 4.0308 4.69977C3.99024 4.73819 3.95003 4.77697 3.91018 4.81575C3.87034 4.85453 3.83084 4.89331 3.79171 4.93245C3.75221 4.97194 3.71308 5.01144 3.67465 5.05128C3.63587 5.09078 3.59745 5.13098 3.55938 5.17083C3.52166 5.21139 3.48395 5.25195 3.44659 5.29286C3.40924 5.33342 3.37259 5.37398 3.33594 5.41525C3.2993 5.45617 3.26301 5.4978 3.22707 5.53942C3.19114 5.58105 3.1552 5.62304 3.11962 5.66537C3.08476 5.70736 3.04989 5.7497 3.01538 5.79203C2.98051 5.83473 2.946 5.87742 2.9122 5.92047C2.87804 5.96317 2.84424 6.00622 2.81116 6.04962C2.77807 6.09303 2.74534 6.13679 2.71296 6.18055C2.68023 6.22432 2.64785 6.26843 2.61583 6.31291C2.58416 6.35703 2.55285 6.40114 2.5219 6.44562C2.49059 6.49045 2.45964 6.53527 2.42904 6.58046C2.3988 6.62529 2.36891 6.67047 2.33903 6.71566C2.3095 6.76084 2.27996 6.80639 2.25079 6.85228C2.22162 6.89782 2.19315 6.94372 2.16505 6.98997C2.13658 7.03622 2.10883 7.08248 2.08144 7.12908C2.05368 7.17534 2.02664 7.22194 1.99996 7.26855C1.97328 7.31552 1.94695 7.36248 1.92098 7.40944C1.89963 7.44894 1.87828 7.48879 1.85693 7.52864H24.4213C24.4128 7.51191 24.4039 7.49519 24.395 7.47847C24.3694 7.43115 24.3434 7.38383 24.3167 7.33686C24.2904 7.29026 24.2637 7.24329 24.2367 7.19668C24.2097 7.15008 24.1823 7.10382 24.1545 7.05793C24.1264 7.01132 24.0983 6.96542 24.0695 6.91953C24.0407 6.87363 24.0115 6.82773 23.9823 6.78219C23.9531 6.73665 23.9236 6.69147 23.8937 6.64628C23.8635 6.6011 23.8329 6.55591 23.8016 6.51108C23.771 6.46625 23.74 6.42178 23.7084 6.37766C23.677 6.33319 23.645 6.28871 23.613 6.2446C23.5806 6.20048 23.5482 6.15672 23.5152 6.11296C23.4824 6.06955 23.4493 6.0265 23.4155 5.98345C23.3821 5.94004 23.3479 5.89699 23.3138 5.8543C23.2793 5.8116 23.2444 5.76926 23.2092 5.72692C23.1743 5.68459 23.1391 5.64225 23.1032 5.60026C23.0676 5.55864 23.0316 5.51701 22.9954 5.47538C22.9591 5.43411 22.9228 5.39284 22.8858 5.35192C22.8488 5.31101 22.8114 5.27045 22.7737 5.23024C22.736 5.18969 22.6983 5.14913 22.6602 5.10928C22.6218 5.06907 22.583 5.02923 22.5439 4.98973C22.5051 4.9506 22.4656 4.91146 22.4261 4.87232C22.3866 4.83319 22.3468 4.79441 22.3069 4.75562C22.2667 4.71756 22.2265 4.67913 22.1856 4.64142C22.145 4.60335 22.1037 4.56528 22.0625 4.52756C22.0208 4.49056 21.9789 4.4532 21.9369 4.41656C21.8949 4.37956 21.8526 4.34255 21.8099 4.30591C21.7675 4.26962 21.7248 4.23368 21.6818 4.19775C21.6387 4.16181 21.5953 4.12624 21.5516 4.09101C21.5078 4.05579 21.4633 4.02057 21.4192 3.98606C21.3747 3.95119 21.3303 3.91632 21.2854 3.88217C21.2406 3.84801 21.1954 3.81385 21.1502 3.78005C21.1047 3.74661 21.0588 3.71317 21.0129 3.68008C20.967 3.64699 20.9211 3.61426 20.8749 3.58188C20.8283 3.5495 20.7816 3.51713 20.7347 3.48546C20.6877 3.45344 20.6404 3.42178 20.5927 3.39047C20.5454 3.35916 20.4977 3.3282 20.4497 3.29761C20.4017 3.26701 20.3533 3.23641 20.3049 3.20617C20.2565 3.17628 20.2081 3.1464 20.159 3.11687C20.1103 3.08734 20.0608 3.05816 20.0114 3.0297C19.9619 3.00052 19.9121 2.97206 19.8623 2.9436C19.8125 2.91549 19.7627 2.88774 19.7125 2.86034C19.662 2.83259 19.6115 2.8052 19.5606 2.77816C19.5101 2.75112 19.4592 2.72479 19.4079 2.69846C19.3567 2.67178 19.3055 2.6458 19.2539 2.61983C19.2023 2.59421 19.1507 2.56895 19.0984 2.54405C19.0465 2.51879 18.9942 2.49424 18.9419 2.46969C18.8896 2.44549 18.8369 2.4213 18.7842 2.39746C18.7316 2.37398 18.6786 2.3505 18.6252 2.32773C18.5722 2.3046 18.5188 2.28219 18.4651 2.25977C18.4117 2.23736 18.358 2.2153 18.3043 2.1936C18.2502 2.17189 18.1961 2.15055 18.1417 2.12955C18.0876 2.10856 18.0332 2.08793 17.9787 2.06765C17.9243 2.04737 17.8695 2.02744 17.8151 2.00788C17.7599 1.98795 17.7051 1.96874 17.6496 1.94953C17.5945 1.93067 17.5393 1.91217 17.4838 1.89402C17.4283 1.87552 17.3725 1.85773 17.3166 1.8403C17.2611 1.82251 17.2053 1.80508 17.1494 1.78835C17.0932 1.77128 17.037 1.75491 16.9808 1.7389C16.9245 1.72253 16.868 1.70688 16.8114 1.69122C16.7548 1.67593 16.6983 1.66098 16.6413 1.64604C16.5848 1.63145 16.5278 1.61758 16.4706 1.6037C16.4136 1.58947 16.3564 1.57559 16.2994 1.56243C16.2421 1.54927 16.1845 1.53646 16.1272 1.524C16.0696 1.5112 16.012 1.49874 15.9543 1.487C15.8967 1.47526 15.839 1.46388 15.7814 1.45285C15.7234 1.44182 15.6654 1.43114 15.6074 1.42083C15.5494 1.41051 15.4911 1.40019 15.4331 1.39058C15.3751 1.38098 15.3171 1.37173 15.2587 1.36283C15.2004 1.35394 15.1417 1.3454 15.0833 1.33757C15.025 1.32939 14.9666 1.32156 14.9083 1.31409C14.8496 1.30662 14.7909 1.29915 14.7322 1.29239C14.6731 1.28598 14.6144 1.27958 14.5557 1.27389C14.497 1.26784 14.4383 1.2625 14.3792 1.25716C14.3205 1.25183 14.2615 1.24685 14.2024 1.24222C14.1434 1.23795 14.0843 1.23368 14.0252 1.23012C13.9665 1.22621 13.9075 1.22265 13.8484 1.21981C13.7893 1.2166 13.7303 1.21411 13.6712 1.21162C13.6122 1.20913 13.5531 1.20735 13.4937 1.20557C13.4346 1.20415 13.3756 1.20308 13.3169 1.20273C13.2574 1.20202 13.1984 1.20166 13.139 1.20166L13.0479 1.20237ZM13.139 1.20166C13.1984 1.20166 13.2574 1.20202 13.3169 1.20273C13.3756 1.20308 13.4346 1.20415 13.4937 1.20557C13.5531 1.20735 13.6122 1.20913 13.6712 1.21162C13.7303 1.21411 13.7893 1.2166 13.8484 1.21981C13.9075 1.22265 13.9665 1.22621 14.0252 1.23012C14.0843 1.23368 14.1434 1.23795 14.2024 1.24222C14.2615 1.24685 14.3205 1.25183 14.3792 1.25716C14.4383 1.2625 14.497 1.26784 14.5557 1.27389C14.6144 1.27958 14.6731 1.28598 14.7322 1.29239C14.7909 1.29915 14.8496 1.30662 14.9083 1.31409C14.9666 1.32156 15.025 1.32939 15.0833 1.33757C15.1417 1.3454 15.2004 1.35394 15.2587 1.36283C15.3171 1.37173 15.3751 1.38098 15.4331 1.39058C15.4911 1.40019 15.5494 1.41051 15.6074 1.42083C15.6654 1.43114 15.7234 1.44182 15.7814 1.45285C15.839 1.46388 15.8967 1.47526 15.9543 1.487C16.012 1.49874 16.0696 1.5112 16.1272 1.524C16.1845 1.53646 16.2421 1.54927 16.2994 1.56243C16.3564 1.57559 16.4136 1.58947 16.4706 1.6037C16.5278 1.61758 16.5851 1.63252 16.6417 1.64711C16.6986 1.66169 16.7548 1.67593 16.8114 1.69122C16.868 1.70688 16.9245 1.72253 16.9808 1.7389C17.037 1.75491 17.0932 1.77128 17.1494 1.78835C17.2053 1.80508 17.2611 1.82251 17.3166 1.8403C17.3725 1.85773 17.4283 1.87552 17.4838 1.89402C17.5393 1.91217 17.5945 1.93067 17.6496 1.94953C17.7051 1.96874 17.7599 1.98795 17.8151 2.00788C17.8695 2.02744 17.9243 2.04737 17.9787 2.06765C18.0332 2.08793 18.0876 2.10856 18.1417 2.12955C18.1961 2.15055 18.2506 2.17261 18.3046 2.19466C18.3584 2.21637 18.4117 2.23736 18.4651 2.25977C18.5188 2.28219 18.5722 2.3046 18.6252 2.32773C18.6786 2.3505 18.7316 2.37398 18.7842 2.39746C18.8369 2.4213 18.8899 2.44621 18.9422 2.47076C18.9945 2.49495 19.0465 2.51879 19.0984 2.54405C19.1507 2.56895 19.2023 2.59421 19.2539 2.61983C19.3055 2.6458 19.3567 2.67178 19.4079 2.69846C19.4592 2.72479 19.5101 2.75112 19.5606 2.77816C19.6115 2.8052 19.662 2.83259 19.7125 2.86034C19.7627 2.88774 19.8125 2.91549 19.8623 2.9436C19.9121 2.97206 19.9619 3.00052 20.0114 3.0297C20.0608 3.05816 20.1103 3.08734 20.159 3.11687C20.2081 3.1464 20.2565 3.17628 20.3049 3.20617C20.3533 3.23641 20.4017 3.26701 20.4497 3.29761C20.4977 3.3282 20.5454 3.35916 20.5927 3.39047C20.6404 3.42178 20.6877 3.45344 20.7347 3.48546C20.7816 3.51713 20.8283 3.5495 20.8749 3.58188C20.9211 3.61461 20.9674 3.64806 21.0133 3.68115C21.0592 3.71388 21.1051 3.74732 21.1506 3.78112C21.1958 3.81457 21.2406 3.84801 21.2854 3.88217C21.3303 3.91632 21.3747 3.95119 21.4192 3.98606C21.4633 4.02057 21.5078 4.05579 21.5516 4.09101C21.5953 4.12659 21.6391 4.16288 21.6821 4.19882C21.7252 4.2344 21.7679 4.27069 21.8102 4.30698C21.8529 4.34362 21.8953 4.38027 21.9372 4.41763C21.9792 4.45427 22.0212 4.49127 22.0628 4.52863C22.1041 4.56635 22.1454 4.60406 22.1859 4.64248C22.2269 4.6802 22.2671 4.71827 22.3073 4.75669C22.3475 4.79547 22.3873 4.83425 22.4264 4.87339C22.4663 4.91217 22.5054 4.95131 22.5442 4.9908C22.5834 5.03029 22.6218 5.06943 22.6602 5.10928C22.6983 5.14913 22.736 5.18969 22.7737 5.23024C22.8114 5.27081 22.8491 5.31208 22.8865 5.35299C22.9231 5.39391 22.9598 5.43482 22.9957 5.47645C23.032 5.51772 23.0683 5.55935 23.1039 5.60133C23.1394 5.64331 23.1747 5.6853 23.2099 5.72799C23.2451 5.76997 23.2796 5.81231 23.3145 5.85501C23.3487 5.89806 23.3821 5.9404 23.4155 5.98345C23.4493 6.0265 23.4828 6.07062 23.5159 6.11402C23.5486 6.15778 23.5813 6.20155 23.6134 6.24566C23.6457 6.28978 23.6774 6.3339 23.7091 6.37837C23.7404 6.42285 23.7713 6.46732 23.8023 6.51179C23.8332 6.55662 23.8638 6.60181 23.8941 6.64735C23.924 6.69218 23.9535 6.73772 23.9827 6.78326C24.0122 6.8288 24.0407 6.87363 24.0695 6.91953C24.0983 6.96542 24.1264 7.01132 24.1545 7.05793C24.1823 7.10418 24.21 7.15114 24.2371 7.19775C24.2641 7.24436 24.2908 7.29097 24.3171 7.33793C24.3438 7.3849 24.3698 7.43222 24.3954 7.47954C24.4043 7.4959 24.4128 7.51191 24.4213 7.52864L36.331 7.52935C40.2721 7.52935 43.467 4.69692 43.467 1.20308L13.139 1.20166Z" fill="#AA00D4"/>
<path d="M24.4213 7.52864H1.85693C1.87828 7.48879 1.89963 7.44894 1.92098 7.40944C1.94695 7.36248 1.97328 7.31552 1.99996 7.26855C2.02664 7.22194 2.05368 7.17534 2.08144 7.12908C2.10883 7.08248 2.13658 7.03622 2.16505 6.98997C2.19315 6.94372 2.22162 6.89782 2.25079 6.85228C2.27996 6.80639 2.3095 6.76084 2.33903 6.71566C2.36891 6.67047 2.3988 6.62529 2.42904 6.58046C2.45964 6.53527 2.49059 6.49045 2.5219 6.44562C2.55285 6.40114 2.58416 6.35703 2.61583 6.31291C2.64785 6.26843 2.68023 6.22432 2.71296 6.18055C2.74534 6.13679 2.77807 6.09303 2.81116 6.04962C2.84424 6.00622 2.87804 5.96317 2.9122 5.92047C2.946 5.87742 2.98051 5.83473 3.01538 5.79203C3.04989 5.7497 3.08476 5.70736 3.11962 5.66537C3.1552 5.62304 3.19114 5.58105 3.22707 5.53942C3.26301 5.4978 3.2993 5.45617 3.33594 5.41525C3.37259 5.37398 3.40924 5.33342 3.44659 5.29286C3.48395 5.25195 3.52166 5.21139 3.55938 5.17083C3.59745 5.13098 3.63587 5.09078 3.67465 5.05128C3.71308 5.01144 3.75221 4.97194 3.79171 4.93245C3.83084 4.89331 3.87034 4.85453 3.91018 4.81575C3.95003 4.77697 3.99024 4.73819 4.0308 4.69977C4.071 4.66134 4.11156 4.62363 4.15248 4.58591C4.19375 4.5482 4.23537 4.51084 4.27736 4.47349C4.31898 4.43613 4.36061 4.39913 4.40259 4.36248C4.44529 4.32583 4.48798 4.28954 4.53103 4.25361C4.57373 4.21732 4.61678 4.18103 4.65983 4.14545C4.70359 4.10987 4.74735 4.07465 4.79183 4.03978C4.83559 4.00491 4.87971 3.97004 4.92418 3.93553C4.96865 3.90102 5.01348 3.86687 5.05867 3.83307C5.10385 3.79891 5.14939 3.76511 5.19529 3.73167C5.24048 3.69822 5.28637 3.66478 5.33227 3.63205C5.37852 3.59931 5.42513 3.56694 5.47174 3.53492C5.51835 3.5029 5.56531 3.47088 5.61263 3.43921C5.65995 3.40754 5.70762 3.37624 5.7553 3.34528C5.80298 3.31397 5.85101 3.28302 5.89904 3.25242C5.94743 3.22218 5.99581 3.19194 6.04456 3.16241C6.0933 3.13252 6.14204 3.10299 6.19078 3.07382C6.24024 3.04464 6.28969 3.01582 6.3395 2.98736C6.38896 2.9589 6.43913 2.93079 6.48929 2.90304C6.5391 2.87493 6.58927 2.84718 6.63979 2.82014C6.69031 2.79274 6.74119 2.7657 6.79242 2.73902C6.8433 2.71233 6.89418 2.68601 6.94577 2.66003C6.997 2.63406 7.04859 2.60809 7.10018 2.58283C7.15212 2.55721 7.20407 2.53231 7.25637 2.5074C7.30867 2.48285 7.36062 2.45866 7.41327 2.43446C7.46593 2.41063 7.51859 2.38679 7.5716 2.36366C7.62425 2.34018 7.67762 2.31705 7.73099 2.29428C7.78436 2.27151 7.83808 2.2491 7.89181 2.22704C7.94553 2.20498 7.99925 2.18363 8.05298 2.16229C8.10706 2.14094 8.16149 2.11995 8.21593 2.09931C8.27036 2.07832 8.32516 2.05804 8.37995 2.03812C8.43438 2.01784 8.48917 1.99791 8.54432 1.9787C8.59911 1.95949 8.65426 1.94028 8.70941 1.92177C8.76491 1.90327 8.82041 1.88513 8.87592 1.86734C8.93142 1.84919 8.98728 1.8314 9.04314 1.81433C9.099 1.79725 9.15485 1.78053 9.21107 1.76416C9.26728 1.74744 9.32385 1.73107 9.38042 1.71506C9.43664 1.69941 9.49321 1.68411 9.54978 1.66881C9.60635 1.65387 9.66292 1.63928 9.71984 1.62505C9.77677 1.61082 9.83405 1.59658 9.89133 1.58306C9.94826 1.56919 10.0055 1.55603 10.0628 1.54286C10.1201 1.53005 10.1777 1.51724 10.2354 1.50515C10.293 1.49305 10.3507 1.48131 10.4083 1.46992C10.4659 1.45854 10.5239 1.44751 10.5819 1.43684C10.6396 1.42616 10.6975 1.41584 10.7555 1.40588C10.8135 1.39592 10.8719 1.38596 10.9302 1.37671C10.9886 1.36746 11.0469 1.35821 11.1053 1.34967C11.1633 1.34113 11.2216 1.33295 11.28 1.32547C11.3387 1.31765 11.397 1.31018 11.4557 1.30306C11.5144 1.29594 11.5731 1.28918 11.6322 1.28278C11.6909 1.27638 11.7496 1.27068 11.8083 1.26499C11.8674 1.2593 11.9264 1.25432 11.9855 1.24934C12.0442 1.24471 12.1029 1.24009 12.1616 1.23582C12.2207 1.23155 12.2797 1.22799 12.3388 1.22443C12.3979 1.22123 12.4573 1.21803 12.5163 1.21554C12.5754 1.21269 12.6345 1.21056 12.6935 1.20842C12.7526 1.20664 12.812 1.20522 12.8711 1.20451C12.9301 1.20344 12.9892 1.20273 13.0479 1.20237L13.139 1.20166M24.4213 7.52864C24.4128 7.51191 24.4039 7.49519 24.395 7.47847C24.3694 7.43115 24.3434 7.38383 24.3167 7.33686C24.2904 7.29026 24.2637 7.24329 24.2367 7.19668C24.2097 7.15008 24.1823 7.10382 24.1545 7.05793M24.4213 7.52864C24.4128 7.51191 24.4043 7.4959 24.3954 7.47954C24.3698 7.43222 24.3438 7.3849 24.3171 7.33793C24.2908 7.29097 24.2641 7.24436 24.2371 7.19775C24.21 7.15114 24.1823 7.10418 24.1545 7.05793M24.4213 7.52864L36.331 7.52935C40.2721 7.52935 43.467 4.69692 43.467 1.20308L13.139 1.20166M24.1545 7.05793C24.1264 7.01132 24.0983 6.96542 24.0695 6.91953M24.0695 6.91953C24.0407 6.87363 24.0115 6.82773 23.9823 6.78219C23.9531 6.73665 23.9236 6.69147 23.8937 6.64628C23.8635 6.6011 23.8329 6.55591 23.8016 6.51108C23.771 6.46625 23.74 6.42178 23.7084 6.37766C23.677 6.33319 23.645 6.28871 23.613 6.2446C23.5806 6.20048 23.5482 6.15672 23.5152 6.11296C23.4824 6.06955 23.4493 6.0265 23.4155 5.98345M24.0695 6.91953C24.0407 6.87363 24.0122 6.8288 23.9827 6.78326C23.9535 6.73772 23.924 6.69218 23.8941 6.64735C23.8638 6.60181 23.8332 6.55662 23.8023 6.51179C23.7713 6.46732 23.7404 6.42285 23.7091 6.37837C23.6774 6.3339 23.6457 6.28978 23.6134 6.24566C23.5813 6.20155 23.5486 6.15778 23.5159 6.11402C23.4828 6.07062 23.4493 6.0265 23.4155 5.98345M23.4155 5.98345C23.3821 5.94004 23.3479 5.89699 23.3138 5.8543C23.2793 5.8116 23.2444 5.76926 23.2092 5.72692C23.1743 5.68459 23.1391 5.64225 23.1032 5.60026C23.0676 5.55864 23.0316 5.51701 22.9954 5.47538C22.9591 5.43411 22.9228 5.39284 22.8858 5.35192C22.8488 5.31101 22.8114 5.27045 22.7737 5.23024M23.4155 5.98345C23.3821 5.9404 23.3487 5.89806 23.3145 5.85501C23.2796 5.81231 23.2451 5.76997 23.2099 5.72799C23.1747 5.6853 23.1394 5.64331 23.1039 5.60133C23.0683 5.55935 23.032 5.51772 22.9957 5.47645C22.9598 5.43482 22.9231 5.39391 22.8865 5.35299C22.8491 5.31208 22.8114 5.27081 22.7737 5.23024M22.7737 5.23024C22.736 5.18969 22.6983 5.14913 22.6602 5.10928M22.6602 5.10928C22.6218 5.06907 22.583 5.02923 22.5439 4.98973C22.5051 4.9506 22.4656 4.91146 22.4261 4.87232C22.3866 4.83319 22.3468 4.79441 22.3069 4.75562C22.2667 4.71756 22.2265 4.67913 22.1856 4.64142C22.145 4.60335 22.1037 4.56528 22.0625 4.52756C22.0208 4.49056 21.9789 4.4532 21.9369 4.41656C21.8949 4.37956 21.8526 4.34255 21.8099 4.30591C21.7675 4.26962 21.7248 4.23368 21.6818 4.19775C21.6387 4.16181 21.5953 4.12624 21.5516 4.09101M22.6602 5.10928C22.6218 5.06943 22.5834 5.03029 22.5442 4.9908C22.5054 4.95131 22.4663 4.91217 22.4264 4.87339C22.3873 4.83425 22.3475 4.79547 22.3073 4.75669C22.2671 4.71827 22.2269 4.6802 22.1859 4.64248C22.1454 4.60406 22.1041 4.56635 22.0628 4.52863C22.0212 4.49127 21.9792 4.45427 21.9372 4.41763C21.8953 4.38027 21.8529 4.34362 21.8102 4.30698C21.7679 4.27069 21.7252 4.2344 21.6821 4.19882C21.6391 4.16288 21.5953 4.12659 21.5516 4.09101M21.5516 4.09101C21.5078 4.05579 21.4633 4.02057 21.4192 3.98606C21.3747 3.95119 21.3303 3.91632 21.2854 3.88217M21.2854 3.88217C21.2406 3.84801 21.1954 3.81385 21.1502 3.78005C21.1047 3.74661 21.0588 3.71317 21.0129 3.68008C20.967 3.64699 20.9211 3.61426 20.8749 3.58188M21.2854 3.88217C21.2406 3.84801 21.1958 3.81457 21.1506 3.78112C21.1051 3.74732 21.0592 3.71388 21.0133 3.68115C20.9674 3.64806 20.9211 3.61461 20.8749 3.58188M20.8749 3.58188C20.8283 3.5495 20.7816 3.51713 20.7347 3.48546C20.6877 3.45344 20.6404 3.42178 20.5927 3.39047C20.5454 3.35916 20.4977 3.3282 20.4497 3.29761C20.4017 3.26701 20.3533 3.23641 20.3049 3.20617C20.2565 3.17628 20.2081 3.1464 20.159 3.11687C20.1103 3.08734 20.0608 3.05816 20.0114 3.0297C19.9619 3.00052 19.9121 2.97206 19.8623 2.9436C19.8125 2.91549 19.7627 2.88774 19.7125 2.86034C19.662 2.83259 19.6115 2.8052 19.5606 2.77816C19.5101 2.75112 19.4592 2.72479 19.4079 2.69846C19.3567 2.67178 19.3055 2.6458 19.2539 2.61983C19.2023 2.59421 19.1507 2.56895 19.0984 2.54405M19.0984 2.54405C19.0465 2.51879 18.9942 2.49424 18.9419 2.46969C18.8896 2.44549 18.8369 2.4213 18.7842 2.39746M19.0984 2.54405C19.0465 2.51879 18.9945 2.49495 18.9422 2.47076C18.8899 2.44621 18.8369 2.4213 18.7842 2.39746M18.7842 2.39746C18.7316 2.37398 18.6786 2.3505 18.6252 2.32773C18.5722 2.3046 18.5188 2.28219 18.4651 2.25977M18.4651 2.25977C18.4117 2.23736 18.358 2.2153 18.3043 2.1936C18.2502 2.17189 18.1961 2.15055 18.1417 2.12955M18.4651 2.25977C18.4117 2.23736 18.3584 2.21637 18.3046 2.19466C18.2506 2.17261 18.1961 2.15055 18.1417 2.12955M18.1417 2.12955C18.0876 2.10856 18.0332 2.08793 17.9787 2.06765C17.9243 2.04737 17.8695 2.02744 17.8151 2.00788C17.7599 1.98795 17.7051 1.96874 17.6496 1.94953C17.5945 1.93067 17.5393 1.91217 17.4838 1.89402C17.4283 1.87552 17.3725 1.85773 17.3166 1.8403C17.2611 1.82251 17.2053 1.80508 17.1494 1.78835C17.0932 1.77128 17.037 1.75491 16.9808 1.7389C16.9245 1.72253 16.868 1.70688 16.8114 1.69122M16.8114 1.69122C16.7548 1.67593 16.6983 1.66098 16.6413 1.64604C16.5848 1.63145 16.5278 1.61758 16.4706 1.6037M16.8114 1.69122C16.7548 1.67593 16.6986 1.66169 16.6417 1.64711C16.5851 1.63252 16.5278 1.61758 16.4706 1.6037M16.4706 1.6037C16.4136 1.58947 16.3564 1.57559 16.2994 1.56243C16.2421 1.54927 16.1845 1.53646 16.1272 1.524C16.0696 1.5112 16.012 1.49874 15.9543 1.487C15.8967 1.47526 15.839 1.46388 15.7814 1.45285C15.7234 1.44182 15.6654 1.43114 15.6074 1.42083C15.5494 1.41051 15.4911 1.40019 15.4331 1.39058C15.3751 1.38098 15.3171 1.37173 15.2587 1.36283C15.2004 1.35394 15.1417 1.3454 15.0833 1.33757C15.025 1.32939 14.9666 1.32156 14.9083 1.31409C14.8496 1.30662 14.7909 1.29915 14.7322 1.29239C14.6731 1.28598 14.6144 1.27958 14.5557 1.27389C14.497 1.26784 14.4383 1.2625 14.3792 1.25716C14.3205 1.25183 14.2615 1.24685 14.2024 1.24222C14.1434 1.23795 14.0843 1.23368 14.0252 1.23012C13.9665 1.22621 13.9075 1.22265 13.8484 1.21981C13.7893 1.2166 13.7303 1.21411 13.6712 1.21162C13.6122 1.20913 13.5531 1.20735 13.4937 1.20557C13.4346 1.20415 13.3756 1.20308 13.3169 1.20273C13.2574 1.20202 13.1984 1.20166 13.139 1.20166" stroke="#D40055" stroke-width="0.409" stroke-linecap="round" stroke-linejoin="round"/>
</svg>
