<svg width="20" height="20" viewBox="0 0 20 20" fill="none" xmlns="http://www.w3.org/2000/svg">
<path d="M3 1.5C2.1729 1.5 1.5 2.1729 1.5 3V17C1.5 17.8271 2.1729 18.5 3 18.5H17C17.8271 18.5 18.5 17.8271 18.5 17V3C18.5 2.1729 17.8271 1.5 17 1.5H3ZM3 0H17C18.6569 0 20 1.34315 20 3V17C20 18.6569 18.6569 20 17 20H3C1.34315 20 0 18.6569 0 17V3C0 1.34315 1.34315 0 3 0Z" fill="#192F60"/>
<path d="M14.5 4.41602H6.5V2.91602H14.5V4.41602Z" fill="#192F60"/>
<path d="M9.13869 13.9749L5.96962 10.8052C5.67677 10.5122 5.67677 10.0374 5.96974 9.74463C6.26283 9.45142 6.73756 9.4519 7.03041 9.74463L9.13869 11.8533L13.7022 7.29004C13.9949 6.99707 14.47 6.99707 14.7627 7.29004C15.0557 7.58276 15.0557 8.05786 14.7627 8.35059L9.13869 13.9749Z" fill="#192F60"/>
</svg>
