<svg width="22" height="21" viewBox="0 0 22 21" fill="none" xmlns="http://www.w3.org/2000/svg">
<path d="M8.56211 0.196289H12.4682C13.9586 0.196289 15.1712 1.40886 15.1712 2.89932V4.10234H18.3272C19.8177 4.10234 21.0303 5.31491 21.0303 6.80537V17.547C21.0303 19.0375 19.8177 20.25 18.3272 20.25H2.70303C1.21257 20.25 0 19.0375 0 17.547L0.00976944 6.80469C0.00976944 6.08117 0.28784 5.40233 0.792759 4.8939C1.29967 4.38345 1.97808 4.10234 2.70303 4.10234H5.85908V2.89932C5.85908 1.40886 7.07165 0.196289 8.56211 0.196289ZM18.3272 18.75C19.0019 18.75 19.5303 18.2216 19.5303 17.547V6.80537C19.5303 6.13077 19.0019 5.60234 18.3272 5.60234H13.6712V2.89932C13.6712 2.22472 13.1428 1.69629 12.4682 1.69629H8.56211C7.88751 1.69629 7.35908 2.22472 7.35908 2.89932V5.60234H2.70303C2.03391 5.60234 1.50977 6.13077 1.50977 6.80537L1.5 17.5477C1.5 18.2216 2.02843 18.75 2.70303 18.75H18.3272Z" fill="#192F60"/>
<path d="M17.519 9.52539H3.75293V8.02539H17.519V9.52539Z" fill="#192F60"/>
</svg>
