<svg width="13" height="13" viewBox="0 0 13 13" fill="none" xmlns="http://www.w3.org/2000/svg">
<path d="M12.4464 9.36123V11.2387C12.4478 11.5911 12.3006 11.9278 12.0409 12.1661C11.7812 12.4043 11.4331 12.5221 11.0821 12.4903C9.15636 12.2811 7.30653 11.623 5.68128 10.5691C4.16919 9.60822 2.8872 8.32623 1.92635 6.81414C0.868702 5.1815 0.210505 3.32268 0.00508396 1.38827C-0.0265365 1.03836 0.0903668 0.691268 0.327236 0.431784C0.564105 0.1723 0.899128 0.0243182 1.25047 0.0239873H3.12793C3.75617 0.0178037 4.29164 0.478313 4.37957 1.1004C4.45881 1.70123 4.60577 2.29117 4.81764 2.85896C4.98958 3.31635 4.87961 3.83198 4.53603 4.17944L3.74123 4.97423C4.63213 6.541 5.92939 7.83826 7.49616 8.72915L8.29095 7.93436C8.6384 7.59078 9.15403 7.48081 9.61143 7.65274C10.1792 7.86461 10.7692 8.01157 11.37 8.09082C11.9993 8.1796 12.4622 8.72589 12.4464 9.36123Z" fill="#192F60"/>
</svg>
