<svg width="13" height="13" viewBox="0 0 13 13" fill="none" xmlns="http://www.w3.org/2000/svg">
<path d="M12.4464 9.36074V11.2382C12.4478 11.5906 12.3006 11.9273 12.0409 12.1656C11.7812 12.4038 11.4331 12.5216 11.0821 12.4898C9.15636 12.2806 7.30653 11.6225 5.68128 10.5686C4.16919 9.60773 2.8872 8.32574 1.92635 6.81365C0.868702 5.18101 0.210505 3.32219 0.00508396 1.38778C-0.0265365 1.03787 0.0903668 0.69078 0.327236 0.431296C0.564105 0.171812 0.899128 0.02383 1.25047 0.023499H3.12793C3.75617 0.0173154 4.29164 0.477825 4.37957 1.09991C4.45881 1.70074 4.60577 2.29068 4.81764 2.85847C4.98958 3.31586 4.87961 3.8315 4.53603 4.17895L3.74123 4.97374C4.63213 6.54051 5.92939 7.83777 7.49616 8.72866L8.29095 7.93387C8.6384 7.59029 9.15403 7.48032 9.61143 7.65225C10.1792 7.86413 10.7692 8.01109 11.37 8.09033C11.9993 8.17911 12.4622 8.7254 12.4464 9.36074Z" fill="#192F60"/>
</svg>
