<svg width="16" height="19" viewBox="0 0 16 19" fill="none" xmlns="http://www.w3.org/2000/svg">
<path d="M9.51691 15.7292C9.24077 15.7292 9.00084 15.9194 8.94199 16.191C8.89672 16.3947 8.81976 16.5622 8.71564 16.6844C8.65679 16.7523 8.48476 16.9515 7.9868 16.9515C7.48883 16.9515 7.31681 16.7478 7.25796 16.6844C7.15383 16.5622 7.07688 16.3947 7.03161 16.191C6.97276 15.9194 6.73283 15.7292 6.45668 15.7292C6.07642 15.7292 5.80027 16.0824 5.88176 16.449C6.1081 17.4586 6.83242 18.1285 7.9868 18.1285C9.14117 18.1285 9.86549 17.4631 10.0918 16.449C10.1733 16.0824 9.89265 15.7292 9.51691 15.7292Z" fill="#192F60"/>
<path d="M15.0536 13.4298C14.3565 12.5108 12.9848 11.9721 12.9848 7.85707C12.9848 3.63341 11.1197 1.93579 9.38135 1.52837C9.21838 1.48762 9.10068 1.4333 9.10068 1.26127V1.12999C9.10068 0.527905 8.61177 0.0163574 8.0142 0.0163574C8.00968 0.0163574 8.00515 0.0163574 8.00062 0.0163574C7.9961 0.0163574 7.99157 0.0163574 7.98704 0.0163574C7.38948 0.0163574 6.90057 0.527905 6.90057 1.12999V1.26127C6.90057 1.42877 6.78287 1.48762 6.6199 1.52837C4.87701 1.94032 3.01643 3.63341 3.01643 7.85707C3.01643 11.9721 1.64475 12.5063 0.947602 13.4298C0.499432 14.0228 0.924967 14.8694 1.66739 14.8694H8.02326H14.3474C15.0763 14.8694 15.4973 14.0183 15.0536 13.4298ZM13.2881 13.6923H2.73123C2.55921 13.6923 2.46866 13.4932 2.58184 13.3619C2.89873 12.9997 3.2473 12.5244 3.5325 11.8499C3.96709 10.8268 4.17986 9.51847 4.17986 7.85707C4.17986 6.16851 4.49675 4.84664 5.126 3.92766C5.68734 3.10375 6.38902 2.79139 6.87793 2.67822C7.2582 2.58768 7.52982 2.41565 7.71995 2.20288C7.86482 2.03991 8.1138 2.03086 8.25866 2.19383C8.48954 2.45187 8.8019 2.60579 9.10973 2.67822C9.59864 2.79139 10.3003 3.10375 10.8617 3.92766C11.4909 4.84664 11.8078 6.16851 11.8078 7.85707C11.8078 9.51847 12.0206 10.8268 12.4552 11.8499C12.7494 12.538 13.1071 13.0223 13.4285 13.3845C13.5281 13.5067 13.4466 13.6923 13.2881 13.6923Z" fill="#192F60"/>
</svg>
