<svg width="14" height="12" viewBox="0 0 14 12" fill="none" xmlns="http://www.w3.org/2000/svg">
<path d="M11.9404 11.5669H1.32666C0.595215 11.5669 0.000488281 10.9707 0.000488281 10.2383V2.88916L6.34814 7.33301C6.42969 7.39111 6.53174 7.42334 6.63477 7.42334C6.73779 7.42334 6.83643 7.39209 6.9209 7.33301L13.2666 2.88916V10.2383C13.2666 10.9707 12.6719 11.5669 11.9404 11.5669ZM6.63477 6.31299L0.286621 1.86914C0.228516 1.82861 0.164062 1.80127 0.0952148 1.78809C0.295898 1.28711 0.791016 0.951172 1.32666 0.951172H11.9404C12.4766 0.951172 12.9717 1.2876 13.1719 1.78809C13.1035 1.80127 13.0396 1.82764 12.9805 1.86914L6.63477 6.31299Z" fill="#192F60"/>
</svg>
