<svg width="26" height="27" viewBox="0 0 26 27" fill="none" xmlns="http://www.w3.org/2000/svg">
<path d="M12.9223 9.75781C15.1663 9.75781 16.992 11.5835 16.992 13.8276C16.992 16.0716 15.1663 17.8973 12.9223 17.8973C10.6782 17.8973 8.85254 16.0716 8.85254 13.8276C8.85254 11.5835 10.6782 9.75781 12.9223 9.75781ZM12.9223 16.3973C14.3392 16.3973 15.492 15.2445 15.492 13.8276C15.492 12.4106 14.3392 11.2578 12.9223 11.2578C11.5053 11.2578 10.3525 12.4106 10.3525 13.8276C10.3525 15.2445 11.5053 16.3973 12.9223 16.3973Z" fill="#192F60"/>
<path d="M13.0109 26.75C11.377 26.75 10.0477 25.4207 10.0477 23.7868V23.697C10.0343 23.2557 9.75869 22.8728 9.34374 22.7202C9.32892 22.7148 9.31426 22.7088 9.29981 22.7025C9.16202 22.6417 9.01602 22.6108 8.86584 22.6108C8.58398 22.6108 8.31778 22.7188 8.11584 22.9149L8.05263 22.9782C7.49309 23.5383 6.74856 23.847 5.95645 23.847C5.16434 23.847 4.41981 23.5383 3.86002 22.9779C3.30019 22.4187 2.99155 21.6742 2.99155 20.8821C2.99155 20.09 3.30019 19.3454 3.8606 18.7856L3.92357 18.7227C4.23071 18.4065 4.31415 17.9422 4.13606 17.5387C4.13498 17.5363 4.13391 17.5338 4.13286 17.5313C3.96383 17.137 3.57736 16.881 3.14828 16.8793L2.96315 16.8793C1.32926 16.8793 0 15.5501 0 13.9162C0 12.2823 1.32926 10.953 2.96315 10.953H3.05302C3.49433 10.9396 3.87717 10.664 4.02978 10.249C4.03523 10.2342 4.04115 10.2195 4.04753 10.2051C4.22562 9.80157 4.14218 9.33728 3.83504 9.02111L3.77182 8.9579C3.21166 8.39836 2.90303 7.65383 2.90303 6.86172C2.90303 6.06961 3.21166 5.32508 3.77207 4.76529C4.33128 4.20546 5.07581 3.89682 5.86792 3.89682C6.66003 3.89682 7.40456 4.20546 7.96435 4.76587L8.027 4.82852C8.22897 5.02488 8.49529 5.13297 8.77731 5.13297C8.92749 5.13297 9.07349 5.10214 9.21128 5.04133C9.27669 5.01247 9.34574 4.99317 9.4163 4.98389C9.74814 4.79488 9.95766 4.44165 9.95921 4.05355L9.9592 3.86842C9.9592 2.23453 11.2885 0.905273 12.9224 0.905273C14.5563 0.905273 15.8855 2.23453 15.8855 3.86842V3.96802C15.8872 4.3941 16.1432 4.78057 16.5375 4.94959C16.54 4.95065 16.5425 4.95172 16.5449 4.9528C16.6827 5.01361 16.8287 5.04444 16.9789 5.04444C17.2607 5.04444 17.5269 4.93647 17.7289 4.74032L17.7921 4.67709C18.3516 4.11693 19.0962 3.8083 19.8883 3.8083C20.6804 3.8083 21.4249 4.11693 21.9847 4.67734C22.5445 5.23655 22.8532 5.98108 22.8532 6.77319C22.8532 7.5653 22.5445 8.30983 21.9841 8.86962L21.9215 8.93224C21.6141 9.24841 21.5305 9.71289 21.7087 10.1166C21.7375 10.182 21.7568 10.251 21.7661 10.3216C21.9551 10.6534 22.3083 10.8629 22.6964 10.8645L22.8816 10.8645C24.5155 10.8645 25.8447 12.1937 25.8447 13.8276C25.8447 15.4615 24.5155 16.7908 22.8816 16.7908H22.782C22.3559 16.7925 21.9694 17.0484 21.8004 17.4428C21.7993 17.4453 21.7983 17.4477 21.7972 17.4502C21.6191 17.8537 21.7025 18.318 22.0097 18.6342L22.0729 18.6974C22.6331 19.2569 22.9417 20.0014 22.9417 20.7935C22.9417 21.5857 22.6331 22.3302 22.0726 22.89C21.5134 23.4498 20.7689 23.7584 19.9768 23.7584C19.1847 23.7584 18.4402 23.4498 17.8804 22.8894L17.8174 22.8264C17.6155 22.6303 17.3493 22.5223 17.0674 22.5223C16.9172 22.5223 16.7712 22.5531 16.6334 22.6139C16.631 22.615 16.6285 22.6161 16.6261 22.6171C16.2317 22.7862 15.9758 23.1726 15.974 23.6017L15.974 23.7868C15.974 25.4207 14.6448 26.75 13.0109 26.75ZM9.88374 21.3207C10.8706 21.6937 11.5228 22.6132 11.5475 23.6697C11.5477 23.6756 11.5477 23.6814 11.5477 23.6872V23.7868C11.5477 24.5936 12.2041 25.25 13.0109 25.25C13.8177 25.25 14.4741 24.5936 14.4741 23.7868V23.5987C14.4781 22.57 15.0891 21.6459 16.0309 21.2403C16.3598 21.0956 16.7085 21.0223 17.0674 21.0223C17.745 21.0223 18.3848 21.2831 18.869 21.7568C18.871 21.7587 18.873 21.7607 18.875 21.7627L18.9414 21.8291C19.218 22.106 19.5857 22.2584 19.9768 22.2584C20.3679 22.2584 20.7356 22.106 21.012 21.8293C21.2893 21.5523 21.4417 21.1847 21.4417 20.7935C21.4417 20.4024 21.2893 20.0348 21.0126 19.7584L20.9459 19.6917C20.944 19.6898 20.942 19.6878 20.9401 19.6858C20.2003 18.9295 19.9977 17.8158 20.4236 16.8476C20.8292 15.9058 21.7532 15.2949 22.779 15.2908L22.8816 15.2908C23.6883 15.2908 24.3447 14.6344 24.3447 13.8276C24.3447 13.0208 23.6883 12.3645 22.8816 12.3645H22.6934C21.6631 12.3604 20.7379 11.7476 20.3331 10.8033C20.3015 10.7294 20.2819 10.651 20.2752 10.5711C19.9311 9.63916 20.1492 8.59894 20.8515 7.88095C20.8535 7.87898 20.8554 7.87702 20.8573 7.87507L20.9237 7.80867C21.2008 7.53196 21.3532 7.16432 21.3532 6.77319C21.3532 6.38206 21.2008 6.01442 20.924 5.738C20.647 5.4607 20.2794 5.3083 19.8883 5.3083C19.4971 5.3083 19.1295 5.4607 18.8531 5.73742L18.7864 5.80407C18.7845 5.80603 18.7825 5.80799 18.7805 5.80993C18.2963 6.28359 17.6565 6.54444 16.9789 6.54444C16.6204 6.54444 16.272 6.47127 15.9434 6.32693C15.001 5.9215 14.3896 4.99713 14.3855 3.97101L14.3855 3.86842C14.3855 3.06164 13.7292 2.40527 12.9224 2.40527C12.1156 2.40527 11.4592 3.06164 11.4592 3.86842V4.05654C11.4551 5.08684 10.8423 6.01214 9.89807 6.41684C9.8241 6.44854 9.74565 6.46808 9.66573 6.47482C9.38095 6.57984 9.08282 6.63297 8.77731 6.63297C8.09974 6.63297 7.45991 6.37212 6.97568 5.89846C6.97371 5.89653 6.97175 5.89459 6.9698 5.89264L6.9034 5.82624C6.62669 5.54922 6.25905 5.39682 5.86792 5.39682C5.47679 5.39682 5.10915 5.54922 4.83273 5.82595C4.55543 6.10295 4.40303 6.47058 4.40303 6.86172C4.40303 7.25286 4.55543 7.62049 4.83215 7.89691L4.8988 7.96355C4.90076 7.96551 4.90272 7.96749 4.90466 7.96948C5.63971 8.72094 5.84441 9.8252 5.42929 10.789C5.05628 11.7759 4.13682 12.4281 3.08029 12.4528C3.07444 12.4529 3.0686 12.453 3.06275 12.453H2.96315C2.15637 12.453 1.5 13.1094 1.5 13.9162C1.5 14.723 2.15637 15.3793 2.96315 15.3793H3.15127C4.18 15.3834 5.10403 15.9943 5.50969 16.9361C5.93555 17.9043 5.73298 19.018 4.99319 19.7743C4.99125 19.7763 4.98929 19.7783 4.98733 19.7802L4.92093 19.8466C4.64395 20.1233 4.49155 20.4909 4.49155 20.8821C4.49155 21.2732 4.64395 21.6408 4.92068 21.9173C5.19768 22.1946 5.56532 22.347 5.95645 22.347C6.34758 22.347 6.71522 22.1946 6.99164 21.9178L7.05828 21.8512C7.06024 21.8492 7.06222 21.8473 7.06421 21.8453C7.54844 21.3717 8.18827 21.1108 8.86584 21.1108C9.218 21.1108 9.56033 21.1814 9.88374 21.3207Z" fill="#192F60"/>
</svg>
